<svg width="24" height="18" viewBox="0 0 24 18" fill="" xmlns="http://www.w3.org/2000/svg">
    <path d="M21.75 3H12.75L9.75 0H2.25C1.65326 0 1.08097 0.237053 0.65901 0.65901C0.237053 1.08097 0 1.65326 0 2.25L0 15.75C0 16.3467 0.237053 16.919 0.65901 17.341C1.08097 17.7629 1.65326 18 2.25 18H21.75C22.3467 18 22.919 17.7629 23.341 17.341C23.7629 16.919 24 16.3467 24 15.75V5.25C24 4.65326 23.7629 4.08097 23.341 3.65901C22.919 3.23705 22.3467 3 21.75 3ZM16.8516 10.875C16.8516 11.0739 16.7725 11.2647 16.6319 11.4053C16.4912 11.546 16.3005 11.625 16.1016 11.625H13.1016V14.625C13.1016 14.8239 13.0225 15.0147 12.8819 15.1553C12.7412 15.296 12.5505 15.375 12.3516 15.375H11.6016C11.4027 15.375 11.2119 15.296 11.0712 15.1553C10.9306 15.0147 10.8516 14.8239 10.8516 14.625V11.625H7.85156C7.65265 11.625 7.46189 11.546 7.32123 11.4053C7.18058 11.2647 7.10156 11.0739 7.10156 10.875V10.125C7.10156 9.92609 7.18058 9.73532 7.32123 9.59467C7.46189 9.45402 7.65265 9.375 7.85156 9.375H10.8516V6.375C10.8516 6.17609 10.9306 5.98532 11.0712 5.84467C11.2119 5.70402 11.4027 5.625 11.6016 5.625H12.3516C12.5505 5.625 12.7412 5.70402 12.8819 5.84467C13.0225 5.98532 13.1016 6.17609 13.1016 6.375V9.375H16.1016C16.3005 9.375 16.4912 9.45402 16.6319 9.59467C16.7725 9.73532 16.8516 9.92609 16.8516 10.125V10.875Z"
          fill=""/>
</svg>
