<svg width="24" height="24" viewBox="0 0 24 24" fill="none" xmlns="http://www.w3.org/2000/svg">
<path d="M14 6.375V0H1.5C0.66875 0 0 0.501562 0 1.125V22.875C0 23.4984 0.66875 24 1.5 24H22.5C23.3312 24 24 23.4984 24 22.875V7.5H15.5C14.675 7.5 14 6.99375 14 6.375ZM17.5688 12H19.0625C19.5438 12 19.9 12.3328 19.7938 12.6891L17.4188 20.5641C17.3438 20.8219 17.0375 21 16.6875 21H14.3125C13.9688 21 13.6687 20.8219 13.5875 20.5734C11.975 15.7219 12.2875 16.7672 11.9875 15.3937H11.9563C11.8875 16.0641 11.8062 16.2094 10.3562 20.5734C10.275 20.8219 9.975 21 9.63125 21H7.3125C6.9625 21 6.65625 20.8172 6.58125 20.5594L4.21875 12.6844C4.1125 12.3328 4.46875 12 4.95 12H6.48125C6.8375 12 7.15 12.1875 7.21875 12.4547C8.19375 16.1109 8.475 17.5875 8.53125 18.1828C8.63125 17.7047 8.9875 16.65 10.3687 12.4313C10.45 12.1781 10.75 12.0047 11.1 12.0047H12.9187C13.2688 12.0047 13.5687 12.1828 13.65 12.4359C15.15 17.1422 15.45 18.2484 15.5 18.5016C15.4875 17.9766 15.3375 17.6672 16.85 12.4453C16.9125 12.1828 17.2188 12 17.5688 12ZM24 5.71406V6H16V0H16.3813C16.7812 0 17.1625 0.117188 17.4438 0.328125L23.5625 4.92188C23.8438 5.13281 24 5.41875 24 5.71406Z" fill="#5F6368"/>
</svg>
