<svg width="24" height="24" viewBox="0 0 24 24" fill="none" xmlns="http://www.w3.org/2000/svg">
<g clip-path="url(#clip0_2_6161)">
<path d="M23.5625 4.92188L17.4438 0.328125C17.1625 0.117188 16.7812 0 16.3813 0H16V6H24V5.71406C24 5.41875 23.8438 5.13281 23.5625 4.92188ZM8.025 15.75C6.90625 15.75 6 16.3172 6 17.0156C6 17.7188 6.9125 18.2812 8.03125 18.2812C9.15 18.2812 10.0562 17.7141 10.0562 17.0156C10.0562 16.3172 9.14375 15.75 8.025 15.75ZM14 6.375V0H10.025V1.5H8.025V0H1.5C0.66875 0 0 0.501562 0 1.125V22.875C0 23.4984 0.66875 24 1.5 24H22.5C23.3312 24 24 23.4984 24 22.875V7.5H15.5C14.675 7.5 14 6.99375 14 6.375ZM5.99375 1.5H7.99375V3H5.99375V1.5ZM8.0125 19.5C5.9375 19.5 4.3875 18.075 4.8 16.5516L6.025 12V10.5H8.025V9H6.025V7.5H8.025V6H6.025V4.5H8.025V3H10.025V4.5H8.025V6H10.025V7.5H8.025V9H10.025V10.5H8.025V12H9.40625C9.7625 12 10.075 12.1922 10.1438 12.4547L11.225 16.5656C11.625 18.0844 10.075 19.5 8.0125 19.5Z" fill="#5F6368"/>
</g>
<defs>
<clipPath id="clip0_2_6161">
<rect width="24" height="24" fill="white"/>
</clipPath>
</defs>
</svg>
