<svg width="24" height="24" viewBox="0 0 24 24" fill="none" xmlns="http://www.w3.org/2000/svg">
<path d="M11.3687 12.0047C11.0562 11.2547 11.0625 9.80625 11.2437 9.80625C11.7687 9.80625 11.7188 11.5359 11.3687 12.0047ZM11.2625 14.2172C10.7812 15.1641 10.1813 16.2469 9.4875 17.1562C10.6313 16.8281 11.925 16.35 13.4187 16.1297C12.625 15.6797 11.8625 15.0328 11.2625 14.2172ZM5.38125 20.0672C5.38125 20.1047 6.20625 19.8141 7.5625 18.1828C7.14375 18.4781 5.74375 19.3313 5.38125 20.0672ZM15.5 7.5H24V22.875C24 23.4984 23.3312 24 22.5 24H1.5C0.66875 24 0 23.4984 0 22.875V1.125C0 0.501562 0.66875 0 1.5 0H14V6.375C14 6.99375 14.675 7.5 15.5 7.5ZM15 15.5531C13.75 14.9812 12.9187 14.1938 12.3313 13.0312C12.6125 12.1641 13.0562 10.8469 12.7188 10.0219C12.425 8.64375 10.0687 8.77969 9.73125 9.70312C9.41875 10.5609 9.70625 11.7703 10.2375 13.3125C9.5125 14.6062 8.44375 16.3406 7.6875 17.3344C7.68125 17.3344 7.68125 17.3391 7.675 17.3391C5.98125 17.9906 3.075 19.425 4.26875 20.5266C4.61875 20.85 5.26875 20.9953 5.6125 20.9953C6.73125 20.9953 7.84375 20.1516 9.43125 18.0984C11.0437 17.7 12.8125 17.2031 14.3687 17.0109C15.725 17.5641 17.3125 17.925 18.3687 17.925C20.1938 17.925 20.3188 16.425 19.6 15.8906C18.7313 15.2531 16.2062 15.4359 15 15.5531ZM23.5625 4.92188L17.4375 0.328125C17.1562 0.117188 16.775 0 16.375 0H16V6H24V5.71406C24 5.41875 23.8438 5.13281 23.5625 4.92188ZM18.9312 16.8891C19.1875 16.7625 18.775 16.3312 16.2563 16.4672C18.575 17.2078 18.9312 16.8891 18.9312 16.8891Z" fill="#5F6368"/>
</svg>
