<svg width="24" height="24" viewBox="0 0 24 24" fill="none" xmlns="http://www.w3.org/2000/svg">
<g clip-path="url(#clip0_2_2460)">
<path d="M23.1187 4.58902L17.875 0.656207C17.3125 0.234332 16.55 -0.00473022 15.7563 -0.00473022H3C1.34375 -4.27244e-05 0 1.00777 0 2.24996V21.75C0 22.9921 1.34375 24 3 24H21C22.6562 24 24 22.9921 24 21.75V6.18277C24 5.58746 23.6812 5.01089 23.1187 4.58902ZM20.7563 5.99996H16V2.43277L20.7563 5.99996ZM3 21.75V2.24996H13V7.12496C13 7.74839 13.6687 8.24996 14.5 8.24996H21V21.75H3ZM5 19.5H19V13.5L17.5312 12.3984C17.2375 12.1781 16.7625 12.1781 16.4688 12.3984L11 16.5L8.53125 14.6484C8.2375 14.4281 7.7625 14.4281 7.46875 14.6484L5 16.5V19.5ZM8 8.24996C6.34375 8.24996 5 9.25777 5 10.5C5 11.7421 6.34375 12.75 8 12.75C9.65625 12.75 11 11.7421 11 10.5C11 9.25777 9.65625 8.24996 8 8.24996Z" fill="#5F6368"/>
</g>
<defs>
<clipPath id="clip0_2_2460">
<rect width="24" height="24" fill="white"/>
</clipPath>
</defs>
</svg>
