<svg width="24" height="18" viewBox="0 0 24 18" fill="none" xmlns="http://www.w3.org/2000/svg">
<path d="M23.8622 10.6919L20.8446 16.5116C20.6098 16.9645 20.2735 17.3403 19.8694 17.6014C19.4652 17.8626 19.0073 18 18.5412 18H1.87604C1.10425 18 0.623375 17.0581 1.01225 16.3081L4.02992 10.4884C4.26476 10.0355 4.60102 9.65971 5.00517 9.39857C5.40932 9.13742 5.86726 9 6.33333 9H22.9985C23.7703 9 24.2512 9.94186 23.8622 10.6919ZM6.33333 7.5H20V5.25C20 4.00734 19.1046 3 18 3H11.3333L8.66667 0H2C0.895417 0 0 1.00734 0 2.25V15.2834L2.87821 9.73256C3.59225 8.35547 4.91621 7.5 6.33333 7.5Z" fill="#5F6368"/>
</svg>
