<svg width="24" height="24" viewBox="0 0 24 24" fill="" xmlns="http://www.w3.org/2000/svg">
    <path d="M18 11.625V12.9375C18 13.2469 17.6625 13.5 17.25 13.5H6.75C6.3375 13.5 6 13.2469 6 12.9375V11.625C6 11.3156 6.3375 11.0625 6.75 11.0625H17.25C17.6625 11.0625 18 11.3156 18 11.625ZM17.25 15H6.75C6.3375 15 6 15.2531 6 15.5625V16.875C6 17.1844 6.3375 17.4375 6.75 17.4375H17.25C17.6625 17.4375 18 17.1844 18 16.875V15.5625C18 15.2531 17.6625 15 17.25 15ZM24 6.18281V21.75C24 22.9922 22.6562 24 21 24H3C1.34375 24 0 22.9922 0 21.75V2.25C0 1.00781 1.34375 0 3 0H15.7563C16.55 0 17.3125 0.239063 17.875 0.660938L23.1187 4.59375C23.6812 5.01094 24 5.5875 24 6.18281ZM16 2.43281V6H20.7563L16 2.43281ZM21 21.75V8.25H14.5C13.6687 8.25 13 7.74844 13 7.125V2.25H3V21.75H21Z"
          fill=""/>
</svg>
